<svg width="293" height="294" viewBox="0 0 293 294" fill="none" xmlns="http://www.w3.org/2000/svg">
<path fill-rule="evenodd" clip-rule="evenodd" d="M291.156 150.502L292.603 150.53C292.622 149.571 292.631 148.61 292.631 147.647C292.631 146.684 292.622 145.723 292.603 144.764L291.156 144.792L289.709 144.82C289.727 145.76 289.736 146.702 289.736 147.647C289.736 148.592 289.727 149.534 289.709 150.474L291.156 150.502ZM290.937 139.111L292.381 139.027C292.27 137.108 292.121 135.199 291.937 133.3L290.496 133.44L289.056 133.58C289.237 135.442 289.382 137.313 289.492 139.195L290.937 139.111ZM289.834 127.785L291.268 127.589C291.007 125.684 290.709 123.792 290.375 121.912L288.95 122.165L287.525 122.418C287.852 124.26 288.144 126.115 288.4 127.982L289.834 127.785ZM287.846 116.586L289.26 116.277C288.851 114.402 288.405 112.54 287.924 110.692L286.524 111.057L285.123 111.421C285.594 113.232 286.031 115.057 286.432 116.895L287.846 116.586ZM284.982 105.579L286.367 105.159C285.81 103.322 285.218 101.499 284.592 99.6927L283.224 100.167L281.857 100.641C282.471 102.411 283.051 104.198 283.597 105.999L284.982 105.579ZM281.255 94.83L282.602 94.3022C281.902 92.5159 281.169 90.7467 280.402 88.9955L279.076 89.5762L277.75 90.1569C278.502 91.8733 279.221 93.6072 279.907 95.3579L281.255 94.83ZM276.692 84.4129L277.993 83.7803C277.155 82.055 276.284 80.3487 275.38 78.6621L274.104 79.3455L272.829 80.0288C273.714 81.6819 274.568 83.3544 275.39 85.0454L276.692 84.4129ZM271.32 74.3834L272.568 73.6504C271.597 71.9972 270.594 70.3648 269.561 68.7539L268.343 69.5354L267.124 70.3168C268.137 71.8958 269.12 73.496 270.072 75.1165L271.32 74.3834ZM265.178 64.8081L266.364 63.9795C265.267 62.4082 264.14 60.8594 262.983 59.334L261.83 60.2084L260.677 61.0828C261.811 62.5781 262.916 64.0963 263.991 65.6366L265.178 64.8081ZM258.305 55.7428L259.423 54.824C258.207 53.3435 256.962 51.8872 255.689 50.4561L254.608 51.4179L253.526 52.3796C254.774 53.7826 255.994 55.2102 257.187 56.6616L258.305 55.7428ZM250.745 47.2409L251.788 46.2376C250.46 44.857 249.106 43.5024 247.725 42.1747L246.722 43.2179L245.719 44.261C247.072 45.5627 248.4 46.8906 249.702 48.2441L250.745 47.2409ZM242.545 39.3548L243.506 38.2733C242.075 37.0007 240.619 35.7557 239.139 34.5393L238.22 35.6575L237.301 36.7758C238.752 37.9683 240.18 39.1888 241.583 40.4363L242.545 39.3548ZM229.983 27.5982C231.554 28.6954 233.103 29.8226 234.629 30.9791L233.754 32.1324L232.88 33.2857C231.384 32.152 229.866 31.047 228.326 29.9715L229.155 28.7849L229.983 27.5982ZM224.427 25.62L225.209 24.4018C223.598 23.3685 221.965 22.3659 220.312 21.3949L219.579 22.6428L218.846 23.8908C220.467 24.8426 222.067 25.8253 223.646 26.8382L224.427 25.62ZM214.617 19.8581L215.3 18.5822C213.614 17.6789 211.908 16.8076 210.182 15.9692L209.55 17.271L208.917 18.5727C210.608 19.3944 212.281 20.2484 213.934 21.1339L214.617 19.8581ZM83.0814 17.271L82.4488 15.9692C80.7235 16.8076 79.0172 17.6789 77.3306 18.5822L78.014 19.8581L78.6973 21.1339C80.3504 20.2484 82.0229 19.3945 83.7139 18.5727L83.0814 17.271ZM73.052 22.6428L72.319 21.3949C70.6657 22.3659 69.0333 23.3685 67.4224 24.4018L68.2039 25.62L68.9853 26.8382C70.5643 25.8253 72.1645 24.8426 73.785 23.8908L73.052 22.6428ZM63.4766 28.7849L62.648 27.5982C61.0767 28.6954 59.5279 29.8226 58.0025 30.9791L58.8769 32.1324L59.7513 33.2857C61.2466 32.152 62.7648 31.047 64.3052 29.9715L63.4766 28.7849ZM54.4113 35.6575L53.4925 34.5393C52.012 35.7557 50.5557 37.0006 49.1246 38.2733L50.0864 39.3548L51.0481 40.4363C52.4511 39.1887 53.8787 37.9683 55.3301 36.7758L54.4113 35.6575ZM45.9094 43.2178L44.9061 42.1747C43.5255 43.5024 42.1709 44.857 40.8432 46.2376L41.8864 47.2408L42.9295 48.2441C44.2312 46.8906 45.5591 45.5626 46.9126 44.261L45.9094 43.2178ZM38.0233 51.4178L36.9418 50.4561C35.6692 51.8872 34.4242 53.3434 33.2078 54.824L34.326 55.7428L35.4443 56.6616C36.6368 55.2101 37.8573 53.7826 39.1048 52.3796L38.0233 51.4178ZM30.8009 60.2084L29.6476 59.334C28.4911 60.8594 27.3639 62.4082 26.2667 63.9795L27.4534 64.8081L28.64 65.6366C29.7155 64.0963 30.8206 62.5781 31.9542 61.0828L30.8009 60.2084ZM24.2885 69.5353L23.0703 68.7539C22.037 70.3648 21.0344 71.9972 20.0634 73.6504L21.3113 74.3834L22.5593 75.1164C23.5111 73.496 24.4938 71.8958 25.5067 70.3168L24.2885 69.5353ZM18.5266 79.3455L17.2507 78.6621C16.3474 80.3487 15.4761 82.0551 14.6377 83.7804L15.9395 84.4129L17.2412 85.0455C18.063 83.3544 18.9169 81.682 19.8024 80.0288L18.5266 79.3455ZM13.5552 89.5762L12.2296 88.9955C11.4624 90.7468 10.7286 92.5159 10.0289 94.3022L11.3765 94.8301L12.7241 95.3579C13.4099 93.6072 14.1291 91.8733 14.8809 90.1569L13.5552 89.5762ZM9.40683 100.167L8.03941 99.6927C7.41302 101.499 6.82103 103.322 6.26423 105.16L7.64935 105.579L9.03447 105.999C9.58017 104.198 10.1604 102.411 10.7743 100.641L9.40683 100.167ZM6.1075 111.057L4.70685 110.692C4.22602 112.54 3.7804 114.402 3.37074 116.277L4.7847 116.586L6.19865 116.895C6.60016 115.057 7.0369 113.232 7.50814 111.421L6.1075 111.057ZM3.68092 122.165L2.25589 121.912C1.92228 123.792 1.62458 125.685 1.36353 127.589L2.79741 127.785L4.2313 127.982C4.48719 126.115 4.77898 124.26 5.10596 122.418L3.68092 122.165ZM2.13495 133.44L0.694454 133.3C0.509678 135.199 0.36119 137.108 0.249694 139.027L1.69456 139.111L3.13942 139.195C3.24873 137.314 3.3943 135.442 3.57544 133.581L2.13495 133.44ZM0 147.647C0 146.684 0.00930764 145.723 0.0278379 144.764L1.47487 144.792L2.92189 144.82C2.90372 145.76 2.8946 146.702 2.8946 147.647C2.8946 148.592 2.90372 149.534 2.92189 150.474L1.47487 150.502L0.02784 150.53C0.00930833 149.571 0 148.61 0 147.647ZM1.69456 156.183L0.249699 156.267C0.361196 158.186 0.509685 160.095 0.694462 161.994L2.13495 161.854L3.57545 161.714C3.39431 159.852 3.24874 157.981 3.13942 156.099L1.69456 156.183ZM2.79742 167.509L1.36354 167.705C1.6246 169.61 1.92229 171.502 2.2559 173.382L3.68094 173.129L5.10598 172.876C4.779 171.034 4.4872 169.179 4.23131 167.312L2.79742 167.509ZM4.78471 178.708L3.37076 179.017C3.78041 180.892 4.22603 182.754 4.70686 184.602L6.10751 184.237L7.50816 183.873C7.03691 182.062 6.60017 180.237 6.19867 178.399L4.78471 178.708ZM7.64936 189.715L6.26424 190.135C6.82104 191.972 7.41303 193.795 8.03941 195.601L9.40684 195.127L10.7743 194.653C10.1604 192.883 9.58018 191.096 9.03448 189.295L7.64936 189.715ZM11.3765 200.464L10.0289 200.992C10.7286 202.778 11.4624 204.547 12.2296 206.299L13.5552 205.718L14.8809 205.137C14.1291 203.421 13.4099 201.687 12.7241 199.936L11.3765 200.464ZM15.9395 210.881L14.6378 211.514C15.4761 213.239 16.3474 214.945 17.2507 216.632L18.5266 215.949L19.8024 215.265C18.9169 213.612 18.063 211.94 17.2413 210.249L15.9395 210.881ZM21.3113 220.911L20.0634 221.644C21.0344 223.297 22.037 224.929 23.0703 226.54L24.2885 225.759L25.5067 224.977C24.4938 223.398 23.5111 221.798 22.5593 220.178L21.3113 220.911ZM27.4534 230.486L26.2667 231.315C27.3639 232.886 28.4911 234.435 29.6476 235.96L30.8009 235.086L31.9542 234.211C30.8205 232.716 29.7155 231.198 28.64 229.657L27.4534 230.486ZM34.326 239.551L33.2078 240.47C34.4242 241.951 35.6692 243.407 36.9418 244.838L38.0233 243.876L39.1048 242.914C37.8572 241.511 36.6368 240.084 35.4443 238.632L34.326 239.551ZM41.8863 248.053L40.8432 249.056C42.1709 250.437 43.5255 251.792 44.9061 253.119L45.9093 252.076L46.9126 251.033C45.5591 249.731 44.2311 248.403 42.9295 247.05L41.8863 248.053ZM50.0864 255.939L49.1246 257.021C50.5557 258.293 52.0119 259.538 53.4925 260.755L54.4113 259.637L55.3301 258.518C53.8787 257.326 52.4511 256.105 51.0481 254.858L50.0864 255.939ZM58.8769 263.162L58.0025 264.315C59.5279 265.471 61.0767 266.599 62.648 267.696L63.4766 266.509L64.3051 265.323C62.7648 264.247 61.2466 263.142 59.7513 262.008L58.8769 263.162ZM68.2038 269.674L67.4224 270.892C69.0333 271.926 70.6657 272.928 72.3189 273.899L73.0519 272.651L73.785 271.403C72.1645 270.451 70.5643 269.469 68.9853 268.456L68.2038 269.674ZM78.014 275.436L77.3306 276.712C79.0172 277.615 80.7236 278.486 82.4489 279.325L83.0814 278.023L83.714 276.721C82.0229 275.9 80.3505 275.046 78.6973 274.16L78.014 275.436ZM92.9707 283.934C91.1844 283.234 89.4153 282.5 87.664 281.733L88.2447 280.407L88.8254 279.082C90.5418 279.833 92.2757 280.553 94.0264 281.238L93.4986 282.586L92.9707 283.934ZM98.8354 284.556L98.3612 285.923C100.168 286.55 101.99 287.142 103.828 287.698L104.248 286.313L104.667 284.928C102.866 284.382 101.08 283.802 99.3096 283.188L98.8354 284.556ZM109.725 287.855L109.361 289.256C111.208 289.737 113.07 290.182 114.946 290.592L115.255 289.178L115.563 287.764C113.725 287.362 111.901 286.926 110.09 286.454L109.725 287.855ZM120.833 290.282L120.58 291.707C122.461 292.04 124.353 292.338 126.257 292.599L126.454 291.165L126.65 289.731C124.784 289.475 122.929 289.184 121.086 288.857L120.833 290.282ZM132.109 291.828L131.969 293.268C133.867 293.453 135.777 293.601 137.696 293.713L137.78 292.268L137.864 290.823C135.982 290.714 134.11 290.568 132.249 290.387L132.109 291.828ZM143.46 292.488L143.432 293.935C144.391 293.953 145.352 293.963 146.316 293.963C147.279 293.963 148.24 293.953 149.199 293.935L149.171 292.488L149.143 291.041C148.203 291.059 147.26 291.068 146.316 291.068C145.371 291.068 144.429 291.059 143.488 291.041L143.46 292.488ZM154.851 292.268L154.935 293.713C156.855 293.601 158.764 293.453 160.663 293.268L160.522 291.828L160.382 290.387C158.521 290.568 156.649 290.714 154.768 290.823L154.851 292.268ZM166.177 291.165L166.374 292.599C168.278 292.338 170.171 292.04 172.051 291.707L171.798 290.282L171.545 288.857C169.702 289.184 167.847 289.475 165.981 289.731L166.177 291.165ZM177.377 289.178L177.685 290.592C179.561 290.182 181.423 289.737 183.27 289.256L182.906 287.855L182.541 286.454C180.73 286.926 178.906 287.362 177.068 287.764L177.377 289.178ZM188.383 286.313L188.803 287.698C190.641 287.142 192.463 286.55 194.27 285.923L193.796 284.556L193.322 283.188C191.551 283.802 189.765 284.382 187.964 284.928L188.383 286.313ZM204.967 281.733C203.216 282.5 201.447 283.234 199.66 283.934L199.133 282.586L198.605 281.238C200.355 280.553 202.089 279.833 203.806 279.082L204.386 280.407L204.967 281.733ZM209.55 278.023L210.182 279.325C211.908 278.486 213.614 277.615 215.3 276.712L214.617 275.436L213.934 274.16C212.281 275.046 210.608 275.9 208.917 276.721L209.55 278.023ZM219.579 272.651L220.312 273.899C221.965 272.928 223.598 271.926 225.209 270.892L224.427 269.674L223.646 268.456C222.067 269.469 220.467 270.451 218.846 271.403L219.579 272.651ZM229.154 266.509L229.983 267.696C231.554 266.599 233.103 265.471 234.629 264.315L233.754 263.162L232.88 262.008C231.384 263.142 229.866 264.247 228.326 265.323L229.154 266.509ZM238.22 259.637L239.139 260.755C240.619 259.538 242.075 258.293 243.506 257.021L242.545 255.939L241.583 254.858C240.18 256.105 238.752 257.326 237.301 258.518L238.22 259.637ZM246.722 252.076L247.725 253.119C249.106 251.792 250.46 250.437 251.788 249.056L250.745 248.053L249.702 247.05C248.4 248.403 247.072 249.731 245.718 251.033L246.722 252.076ZM254.608 243.876L255.689 244.838C256.962 243.407 258.207 241.951 259.423 240.47L258.305 239.551L257.187 238.633C255.994 240.084 254.774 241.512 253.526 242.914L254.608 243.876ZM266.364 231.315C265.267 232.886 264.14 234.435 262.983 235.96L261.83 235.086L260.677 234.211C261.811 232.716 262.916 231.198 263.991 229.657L265.178 230.486L266.364 231.315ZM268.343 225.759L269.561 226.54C270.594 224.929 271.597 223.297 272.568 221.644L271.32 220.911L270.072 220.178C269.12 221.798 268.137 223.398 267.124 224.977L268.343 225.759ZM274.105 215.949L275.38 216.632C276.284 214.945 277.155 213.239 277.993 211.514L276.692 210.881L275.39 210.249C274.568 211.94 273.714 213.612 272.829 215.265L274.105 215.949ZM282.602 200.992C281.902 202.778 281.169 204.547 280.402 206.299L279.076 205.718L277.75 205.137C278.502 203.421 279.221 201.687 279.907 199.936L281.255 200.464L282.602 200.992ZM283.224 195.127L284.592 195.601C285.218 193.795 285.81 191.972 286.367 190.135L284.982 189.715L283.597 189.295C283.051 191.096 282.471 192.883 281.857 194.653L283.224 195.127ZM286.524 184.237L287.924 184.602C288.405 182.754 288.851 180.892 289.26 179.017L287.846 178.708L286.432 178.399C286.031 180.237 285.594 182.062 285.123 183.873L286.524 184.237ZM288.95 173.129L290.375 173.382C290.709 171.502 291.007 169.61 291.268 167.705L289.834 167.509L288.4 167.312C288.144 169.179 287.852 171.034 287.525 172.876L288.95 173.129ZM290.496 161.854L291.937 161.994C292.121 160.095 292.27 158.186 292.381 156.267L290.937 156.183L289.492 156.099C289.382 157.981 289.237 159.852 289.056 161.714L290.496 161.854Z" fill="#545454"/>
<path fill-rule="evenodd" clip-rule="evenodd" d="M191.521 11.627C191.362 11.627 191.205 11.5938 191.06 11.5298C177.389 5.51185 162.273 2.17095 146.378 2.17095C130.482 2.17095 115.367 5.51185 101.696 11.5298C101.55 11.5938 101.393 11.627 101.235 11.627V11.627C100.03 11.627 99.6732 10.0482 100.776 9.56215C114.726 3.41375 130.153 0 146.378 0C162.602 0 178.029 3.41375 191.979 9.56215C193.082 10.0482 192.726 11.627 191.521 11.627V11.627Z" fill="#545454"/>
</svg>
