<svg width="862" height="840" viewBox="0 0 862 840" fill="none" xmlns="http://www.w3.org/2000/svg">
<g filter="url(#filter0_b_1_344)">
<mask id="path-1-inside-1_1_344" fill="white">
<path fill-rule="evenodd" clip-rule="evenodd" d="M430.896 838.281C482.56 838.281 532.037 828.917 577.723 811.793C577.254 810.444 577 809.001 577 807.5C577 800.044 583.268 794 591 794C596.367 794 601.028 796.912 603.378 801.186C748.399 735.48 849.281 589.469 849.281 419.896C849.281 413.219 849.125 406.578 848.815 399.977C848.546 399.992 848.274 400 848 400C840.268 400 834 393.956 834 386.5C834 379.47 839.572 373.696 846.689 373.058C830.681 229.354 741.886 107.626 618.011 45.5819C616.003 50.5191 611.158 54 605.5 54C598.044 54 592 47.9558 592 40.5C592 38.2601 592.545 36.1475 593.511 34.2881C543.52 13.1805 488.571 1.51042 430.896 1.51042C372.837 1.51042 317.541 13.3362 267.284 34.7104C267.868 36.226 268.188 37.8725 268.188 39.5938C268.188 47.1014 262.101 53.1875 254.594 53.1875C249.458 53.1875 244.988 50.3398 242.676 46.1374C120.785 107.641 33.0845 227.016 15.6778 368.159C22.1961 369.162 27.1875 374.795 27.1875 381.594C27.1875 389.101 21.1014 395.188 13.5938 395.188C13.4715 395.188 13.3497 395.186 13.2282 395.183C12.7519 403.36 12.5104 411.6 12.5104 419.896C12.5104 586.528 109.924 730.409 250.909 797.696C252.875 792.608 257.813 789 263.594 789C271.101 789 277.188 795.086 277.188 802.594C277.188 804.746 276.687 806.782 275.797 808.591C323.759 827.746 376.097 838.281 430.896 838.281ZM242.022 44.775C119.667 106.502 31.633 226.332 14.1738 368.012C13.9815 368.004 13.7881 368 13.5938 368C6.08613 368 0 374.086 0 381.594C0 388.466 5.10026 394.148 11.7223 395.06C11.243 403.277 11 411.558 11 419.896C11 587.201 108.849 731.653 250.441 799.146C250.153 800.247 250 801.403 250 802.594C250 810.101 256.086 816.188 263.594 816.188C268.404 816.188 272.631 813.689 275.047 809.918C323.235 829.191 375.827 839.792 430.896 839.792C482.765 839.792 532.437 830.387 578.3 813.19C580.527 817.802 585.376 821 591 821C598.732 821 605 814.956 605 807.5C605 805.753 604.656 804.083 604.029 802.55C749.559 736.6 850.792 590.07 850.792 419.896C850.792 413.164 850.633 406.47 850.32 399.815C856.948 398.75 862 393.194 862 386.5C862 379.109 855.841 373.106 848.202 373.001C832.163 228.659 742.954 106.396 618.504 44.1392C618.827 42.9814 619 41.7609 619 40.5C619 33.0442 612.956 27 605.5 27C600.829 27 596.713 29.3718 594.289 32.9767C544.067 11.7419 488.852 0 430.896 0C372.616 0 317.109 11.8732 266.663 33.3328C264.398 28.9759 259.844 26 254.594 26C247.086 26 241 32.0861 241 39.5938C241 41.4284 241.363 43.1782 242.022 44.775Z"/>
</mask>
<path fill-rule="evenodd" clip-rule="evenodd" d="M430.896 838.281C482.56 838.281 532.037 828.917 577.723 811.793C577.254 810.444 577 809.001 577 807.5C577 800.044 583.268 794 591 794C596.367 794 601.028 796.912 603.378 801.186C748.399 735.48 849.281 589.469 849.281 419.896C849.281 413.219 849.125 406.578 848.815 399.977C848.546 399.992 848.274 400 848 400C840.268 400 834 393.956 834 386.5C834 379.47 839.572 373.696 846.689 373.058C830.681 229.354 741.886 107.626 618.011 45.5819C616.003 50.5191 611.158 54 605.5 54C598.044 54 592 47.9558 592 40.5C592 38.2601 592.545 36.1475 593.511 34.2881C543.52 13.1805 488.571 1.51042 430.896 1.51042C372.837 1.51042 317.541 13.3362 267.284 34.7104C267.868 36.226 268.188 37.8725 268.188 39.5938C268.188 47.1014 262.101 53.1875 254.594 53.1875C249.458 53.1875 244.988 50.3398 242.676 46.1374C120.785 107.641 33.0845 227.016 15.6778 368.159C22.1961 369.162 27.1875 374.795 27.1875 381.594C27.1875 389.101 21.1014 395.188 13.5938 395.188C13.4715 395.188 13.3497 395.186 13.2282 395.183C12.7519 403.36 12.5104 411.6 12.5104 419.896C12.5104 586.528 109.924 730.409 250.909 797.696C252.875 792.608 257.813 789 263.594 789C271.101 789 277.188 795.086 277.188 802.594C277.188 804.746 276.687 806.782 275.797 808.591C323.759 827.746 376.097 838.281 430.896 838.281ZM242.022 44.775C119.667 106.502 31.633 226.332 14.1738 368.012C13.9815 368.004 13.7881 368 13.5938 368C6.08613 368 0 374.086 0 381.594C0 388.466 5.10026 394.148 11.7223 395.06C11.243 403.277 11 411.558 11 419.896C11 587.201 108.849 731.653 250.441 799.146C250.153 800.247 250 801.403 250 802.594C250 810.101 256.086 816.188 263.594 816.188C268.404 816.188 272.631 813.689 275.047 809.918C323.235 829.191 375.827 839.792 430.896 839.792C482.765 839.792 532.437 830.387 578.3 813.19C580.527 817.802 585.376 821 591 821C598.732 821 605 814.956 605 807.5C605 805.753 604.656 804.083 604.029 802.55C749.559 736.6 850.792 590.07 850.792 419.896C850.792 413.164 850.633 406.47 850.32 399.815C856.948 398.75 862 393.194 862 386.5C862 379.109 855.841 373.106 848.202 373.001C832.163 228.659 742.954 106.396 618.504 44.1392C618.827 42.9814 619 41.7609 619 40.5C619 33.0442 612.956 27 605.5 27C600.829 27 596.713 29.3718 594.289 32.9767C544.067 11.7419 488.852 0 430.896 0C372.616 0 317.109 11.8732 266.663 33.3328C264.398 28.9759 259.844 26 254.594 26C247.086 26 241 32.0861 241 39.5938C241 41.4284 241.363 43.1782 242.022 44.775Z" fill="black" fill-opacity="0.12"/>
<path d="M577.723 811.793L578.253 813.207L579.633 812.69L579.149 811.297L577.723 811.793ZM603.378 801.186L602.054 801.914L602.728 803.139L604.001 802.562L603.378 801.186ZM848.815 399.977L850.324 399.907L850.253 398.385L848.732 398.469L848.815 399.977ZM846.689 373.058L846.824 374.563L848.361 374.425L848.19 372.891L846.689 373.058ZM618.011 45.5819L618.687 44.2314L617.227 43.4999L616.612 45.0129L618.011 45.5819ZM593.511 34.2881L594.851 34.984L595.605 33.5327L594.098 32.8966L593.511 34.2881ZM267.284 34.7104L266.693 33.3205L265.35 33.8915L265.874 35.2532L267.284 34.7104ZM242.676 46.1374L243.999 45.4093L243.296 44.1324L241.995 44.7889L242.676 46.1374ZM15.6778 368.159L14.1787 367.974L13.9993 369.429L15.4481 369.652L15.6778 368.159ZM13.2282 395.183L13.268 393.673L11.8054 393.634L11.7203 395.095L13.2282 395.183ZM250.909 797.696L250.259 799.059L251.73 799.761L252.318 798.24L250.909 797.696ZM275.797 808.591L274.441 807.924L273.72 809.388L275.236 809.994L275.797 808.591ZM14.1738 368.012L14.1104 369.521L15.5025 369.58L15.6729 368.197L14.1738 368.012ZM242.022 44.775L242.703 46.1235L243.952 45.493L243.419 44.1989L242.022 44.775ZM11.7223 395.06L13.2302 395.148L13.3115 393.754L11.9284 393.563L11.7223 395.06ZM250.441 799.146L251.902 799.528L252.218 798.32L251.091 797.783L250.441 799.146ZM275.047 809.918L275.608 808.516L274.449 808.052L273.776 809.103L275.047 809.918ZM578.3 813.19L579.661 812.533L579.061 811.291L577.77 811.775L578.3 813.19ZM604.029 802.55L603.405 801.174L602.08 801.775L602.631 803.122L604.029 802.55ZM850.32 399.815L850.08 398.324L848.748 398.539L848.811 399.887L850.32 399.815ZM848.202 373.001L846.701 373.168L846.849 374.493L848.182 374.512L848.202 373.001ZM618.504 44.1392L617.049 43.7329L616.714 44.9327L617.828 45.49L618.504 44.1392ZM594.289 32.9767L593.701 34.3678L594.848 34.8527L595.542 33.8195L594.289 32.9767ZM266.663 33.3328L265.323 34.0294L265.968 35.27L267.254 34.7227L266.663 33.3328ZM577.192 810.378C531.674 827.44 482.376 836.771 430.896 836.771V839.792C482.744 839.792 532.401 830.394 578.253 813.207L577.192 810.378ZM575.49 807.5C575.49 809.172 575.773 810.783 576.296 812.289L579.149 811.297C578.735 810.105 578.51 808.829 578.51 807.5H575.49ZM591 792.49C582.486 792.49 575.49 799.159 575.49 807.5H578.51C578.51 800.93 584.05 795.51 591 795.51V792.49ZM604.701 800.459C602.087 795.703 596.92 792.49 591 792.49V795.51C595.814 795.51 599.969 798.12 602.054 801.914L604.701 800.459ZM847.771 419.896C847.771 588.855 747.256 734.34 602.754 799.81L604.001 802.562C749.543 736.62 850.792 590.084 850.792 419.896H847.771ZM847.307 400.048C847.615 406.625 847.771 413.242 847.771 419.896H850.792C850.792 413.195 850.635 406.531 850.324 399.907L847.307 400.048ZM848 401.51C848.302 401.51 848.601 401.502 848.899 401.486L848.732 398.469C848.49 398.483 848.246 398.49 848 398.49V401.51ZM832.49 386.5C832.49 394.841 839.486 401.51 848 401.51V398.49C841.05 398.49 835.51 393.07 835.51 386.5H832.49ZM846.554 371.554C838.711 372.256 832.49 378.637 832.49 386.5H835.51C835.51 380.304 840.433 375.135 846.824 374.563L846.554 371.554ZM617.334 46.9323C740.766 108.754 829.238 230.045 845.188 373.226L848.19 372.891C832.124 228.663 743.007 106.498 618.687 44.2314L617.334 46.9323ZM605.5 55.5104C611.794 55.5104 617.179 51.6376 619.41 46.1508L616.612 45.0129C614.828 49.4006 610.523 52.4896 605.5 52.4896V55.5104ZM590.49 40.5C590.49 48.79 597.21 55.5104 605.5 55.5104V52.4896C598.878 52.4896 593.51 47.1217 593.51 40.5H590.49ZM592.17 33.5921C591.096 35.6615 590.49 38.0122 590.49 40.5H593.51C593.51 38.508 593.995 36.6336 594.851 34.984L592.17 33.5921ZM430.896 3.02083C488.365 3.02083 543.115 14.649 592.923 35.6795L594.098 32.8966C543.925 11.7119 488.776 0 430.896 0V3.02083ZM267.875 36.1004C317.949 14.8042 373.044 3.02083 430.896 3.02083V0C372.631 0 317.133 11.8682 266.693 33.3205L267.875 36.1004ZM265.874 35.2532C266.392 36.5983 266.677 38.061 266.677 39.5938H269.698C269.698 37.684 269.343 35.8537 268.694 34.1677L265.874 35.2532ZM266.677 39.5938C266.677 46.2672 261.267 51.6771 254.594 51.6771V54.6979C262.936 54.6979 269.698 47.9356 269.698 39.5938H266.677ZM254.594 51.6771C250.031 51.6771 246.057 49.1487 243.999 45.4093L241.352 46.8655C243.919 51.531 248.886 54.6979 254.594 54.6979V51.6771ZM17.1768 368.344C34.5202 227.715 121.903 108.769 243.356 47.4859L241.995 44.7889C119.668 106.513 31.6489 226.317 14.1787 367.974L17.1768 368.344ZM28.6979 381.594C28.6979 374.038 23.1513 367.78 15.9074 366.666L15.4481 369.652C21.2408 370.543 25.6771 375.552 25.6771 381.594H28.6979ZM13.5938 396.698C21.9356 396.698 28.6979 389.936 28.6979 381.594H25.6771C25.6771 388.267 20.2672 393.677 13.5938 393.677V396.698ZM13.1884 396.693C13.3231 396.696 13.4582 396.698 13.5938 396.698V393.677C13.4848 393.677 13.3763 393.676 13.268 393.673L13.1884 396.693ZM14.0208 419.896C14.0208 411.629 14.2615 403.418 14.7361 395.271L11.7203 395.095C11.2423 403.301 11 411.57 11 419.896H14.0208ZM251.56 796.332C111.08 729.287 14.0208 585.924 14.0208 419.896H11C11 587.132 108.768 731.531 250.259 799.059L251.56 796.332ZM263.594 787.49C257.168 787.49 251.684 791.501 249.5 797.151L252.318 798.24C254.066 793.715 258.458 790.51 263.594 790.51V787.49ZM278.698 802.594C278.698 794.252 271.936 787.49 263.594 787.49V790.51C270.267 790.51 275.677 795.92 275.677 802.594H278.698ZM277.152 809.258C278.142 807.246 278.698 804.983 278.698 802.594H275.677C275.677 804.51 275.232 806.318 274.441 807.924L277.152 809.258ZM430.896 836.771C376.292 836.771 324.144 826.273 276.357 807.188L275.236 809.994C323.374 829.219 375.902 839.792 430.896 839.792V836.771ZM15.6729 368.197C33.0687 227.031 120.784 107.63 242.703 46.1235L241.342 43.4264C118.549 105.374 30.1973 225.633 12.6748 367.827L15.6729 368.197ZM13.5938 369.51C13.7671 369.51 13.9393 369.514 14.1104 369.521L14.2373 366.503C14.0237 366.494 13.8091 366.49 13.5938 366.49V369.51ZM1.51042 381.594C1.51042 374.92 6.92031 369.51 13.5938 369.51V366.49C5.25195 366.49 -1.51042 373.252 -1.51042 381.594H1.51042ZM11.9284 393.563C6.04353 392.753 1.51042 387.702 1.51042 381.594H-1.51042C-1.51042 389.231 4.15699 395.543 11.5163 396.556L11.9284 393.563ZM12.5104 419.896C12.5104 411.588 12.7526 403.336 13.2302 395.148L10.2145 394.972C9.73345 403.219 9.48958 411.529 9.48958 419.896H12.5104ZM251.091 797.783C110.004 730.531 12.5104 586.597 12.5104 419.896H9.48958C9.48958 587.806 107.693 732.776 249.791 800.51L251.091 797.783ZM251.51 802.594C251.51 801.533 251.647 800.506 251.902 799.528L248.98 798.764C248.66 799.989 248.49 801.273 248.49 802.594H251.51ZM263.594 814.677C256.92 814.677 251.51 809.267 251.51 802.594H248.49C248.49 810.936 255.252 817.698 263.594 817.698V814.677ZM273.776 809.103C271.625 812.459 267.868 814.677 263.594 814.677V817.698C268.94 817.698 273.637 814.919 276.319 810.733L273.776 809.103ZM430.896 838.281C376.023 838.281 323.62 827.718 275.608 808.516L274.486 811.321C322.849 830.663 375.632 841.302 430.896 841.302V838.281ZM577.77 811.775C532.074 828.91 482.581 838.281 430.896 838.281V841.302C482.949 841.302 532.8 831.864 578.831 814.604L577.77 811.775ZM591 819.49C585.955 819.49 581.635 816.623 579.661 812.533L576.94 813.846C579.419 818.982 584.797 822.51 591 822.51V819.49ZM603.49 807.5C603.49 814.07 597.95 819.49 591 819.49V822.51C599.514 822.51 606.51 815.841 606.51 807.5H603.49ZM602.631 803.122C603.185 804.477 603.49 805.953 603.49 807.5H606.51C606.51 805.552 606.126 803.688 605.427 801.978L602.631 803.122ZM849.281 419.896C849.281 589.456 748.415 735.46 603.405 801.174L604.652 803.926C750.702 737.74 852.302 590.685 852.302 419.896H849.281ZM848.811 399.887C849.123 406.517 849.281 413.188 849.281 419.896H852.302C852.302 413.141 852.143 406.422 851.829 399.744L848.811 399.887ZM860.49 386.5C860.49 392.401 856.028 397.368 850.08 398.324L850.56 401.307C857.868 400.132 863.51 393.987 863.51 386.5H860.49ZM848.182 374.512C855.047 374.605 860.49 379.987 860.49 386.5H863.51C863.51 378.232 856.635 371.606 848.223 371.491L848.182 374.512ZM617.828 45.49C741.834 107.524 830.72 229.349 846.701 373.168L849.704 372.835C833.606 227.968 744.074 105.267 619.18 42.7884L617.828 45.49ZM617.49 40.5C617.49 41.6222 617.336 42.7061 617.049 43.7329L619.959 44.5454C620.318 43.2567 620.51 41.8996 620.51 40.5H617.49ZM605.5 28.5104C612.122 28.5104 617.49 33.8783 617.49 40.5H620.51C620.51 32.21 613.79 25.4896 605.5 25.4896V28.5104ZM595.542 33.8195C597.698 30.6141 601.353 28.5104 605.5 28.5104V25.4896C600.305 25.4896 595.728 28.1295 593.036 32.1339L595.542 33.8195ZM430.896 1.51042C488.647 1.51042 543.661 13.2104 593.701 34.3678L594.877 31.5855C544.472 10.2735 489.058 -1.51042 430.896 -1.51042V1.51042ZM267.254 34.7227C317.517 13.3412 372.823 1.51042 430.896 1.51042V-1.51042C372.409 -1.51042 316.702 10.4053 266.072 31.9429L267.254 34.7227ZM254.594 27.5104C259.258 27.5104 263.308 30.1528 265.323 34.0294L268.003 32.6361C265.489 27.7989 260.429 24.4896 254.594 24.4896V27.5104ZM242.51 39.5938C242.51 32.9203 247.92 27.5104 254.594 27.5104V24.4896C246.252 24.4896 239.49 31.2519 239.49 39.5938H242.51ZM243.419 44.1989C242.834 42.7816 242.51 41.2273 242.51 39.5938H239.49C239.49 41.6295 239.893 43.5747 240.626 45.3511L243.419 44.1989Z" fill="white" mask="url(#path-1-inside-1_1_344)"/>
</g>
<defs>
<filter id="filter0_b_1_344" x="-22.6562" y="-22.6562" width="907.312" height="885.104" filterUnits="userSpaceOnUse" color-interpolation-filters="sRGB">
<feFlood flood-opacity="0" result="BackgroundImageFix"/>
<feGaussianBlur in="BackgroundImageFix" stdDeviation="11.3281"/>
<feComposite in2="SourceAlpha" operator="in" result="effect1_backgroundBlur_1_344"/>
<feBlend mode="normal" in="SourceGraphic" in2="effect1_backgroundBlur_1_344" result="shape"/>
</filter>
</defs>
</svg>
